# xmcd
#
# Track frame offsets: 
#        150
#        23630
#        42215
#        56605
#        72945
#        95550
#        115292
#        132880
#        153482
#        172610
#
# Disc length: 2563 seconds
#
# Revision: 0
# Processed by: cddbd v1.5.2PL0 Copyright (c) Steve Scherf et al.
# Submitted via: ExactAudioCopy v0.99pb4
#
DISCID=7a0a010a
DTITLE=凡人二重唱 - 杜鵑鳥的黃昏
DYEAR=1997
DGENRE=Pop
TTITLE0=Unchained Melody
TTITLE1=杜鵑鳥的黃昏
TTITLE2=凡人心事
TTITLE3=城市輓歌
TTITLE4=在那一開始就錯的日子
TTITLE5=離家500浬
TTITLE6=真想來得及說再見
TTITLE7=愛情賭徒
TTITLE8=Baby！不要哭
TTITLE9=我要擁有我自己的明天
EXTD=
EXTT0=
EXTT1=
EXTT2=
EXTT3=
EXTT4=
EXTT5=
EXTT6=
EXTT7=
EXTT8=
EXTT9=
PLAYORDER=
